<?xml version="1.0" encoding="UTF-8"?>
<svg id="Layer_1" xmlns="http://www.w3.org/2000/svg" width="85.8mm" height="20.4mm" version="1.1" viewBox="0 0 243.3 57.9">
  <!-- Generator: Adobe Illustrator 29.5.1, SVG Export Plug-In . SVG Version: 2.1.0 Build 141)  -->
  <defs>
    <style>
      .st0 {
        fill: #030031;
      }
    </style>
  </defs>
  <g>
    <path class="st0" d="M51.8,31.2c0-5.4,3.8-10,10.3-10s10.4,4.7,10.4,10-3.8,10-10.4,10-10.3-4.7-10.3-10ZM66.2,31.2c0-2.7-1.5-5-4.1-5s-4.1,2.3-4.1,5,1.5,5,4.1,5,4.1-2.3,4.1-5Z"/>
    <path class="st0" d="M74.5,48v-26.5h6.2v2.3h.3c.1-.3,1.8-2.7,5.5-2.7,5.7,0,8.4,5.1,8.4,10s-2.7,10-8.4,10-5.4-2.4-5.5-2.7h-.3v9.4h-6.2ZM84.6,36.3c2.7,0,4.1-2.6,4.1-5s-1.3-5-4.1-5-4,2.6-4,5,1.4,5,4,5Z"/>
    <path class="st0" d="M96.4,31.2c0-4.9,3-10,9.9-10s9.3,3.7,9.3,10.2v1.5h-13c.1,2,1.5,3.7,3.8,3.7s3.3-2,3.3-2h5.7s-1,6.7-9,6.7-10.1-5-10.1-10.1ZM109.7,29.2c0-2.3-1.5-3.5-3.5-3.5s-3.4,1.2-3.6,3.5h7Z"/>
    <path class="st0" d="M117.3,40.9v-19.3h6.2v2.7h.2c.7-1.2,2.2-3.1,5.4-3.1,4.7,0,6.4,3.6,6.4,7.1v12.6h-6.2v-11.5c0-1.6-.8-3.2-2.8-3.2s-2.9,1.8-2.9,3.4v11.2h-6.2Z"/>
    <path class="st0" d="M144.5,38.6h-.3v2.3h-6.2V13.2h6.2v10.7h.3c.1-.3,1.8-2.7,5.5-2.7,5.7,0,8.4,5.1,8.4,10s-2.7,10-8.4,10-5.4-2.4-5.5-2.7ZM152.1,31.2c0-2.4-1.3-5-4-5s-4,2.6-4,5,1.4,5,4,5,4-2.6,4-5Z"/>
    <path class="st0" d="M159.9,31.2c0-5.4,3.8-10,10.3-10s10.4,4.7,10.4,10-3.8,10-10.4,10-10.3-4.7-10.3-10ZM174.4,31.2c0-2.7-1.5-5-4.1-5s-4.1,2.3-4.1,5,1.5,5,4.1,5,4.1-2.3,4.1-5Z"/>
    <path class="st0" d="M182.1,31.2c0-5.4,3.8-10,10.3-10s10.4,4.7,10.4,10-3.8,10-10.4,10-10.3-4.7-10.3-10ZM196.5,31.2c0-2.7-1.5-5-4.1-5s-4.1,2.3-4.1,5,1.5,5,4.1,5,4.1-2.3,4.1-5Z"/>
    <path class="st0" d="M204.8,40.9V13.2h6.2v15.9l5.9-7.5h6.9l-7.2,8.8,7.5,10.5h-7.2l-6-8.4v8.4h-6.2Z"/>
  </g>
  <path class="st0" d="M47.3,42.5H15.7v-15.4c0-6.1,3.5-9.5,7.8-9.5s6.1,2.5,6.7,4.8h.4c.5-2.4,2.6-6.1,7.7-6.1s9,3,9,10.5v15.8ZM21.8,35.1h6.4v-6.6c0-2.6-1.4-3.8-3.2-3.8s-3.2,1.2-3.2,3.8v6.6ZM33.8,35.1h7.3v-7.2c0-2.9-1.6-4.2-3.7-4.2s-3.6,1.3-3.6,4.2v7.2Z"/>
</svg>